<svg width="208" height="40" viewBox="0 0 208 40" fill="none" xmlns="http://www.w3.org/2000/svg">
<path d="M13.485 36.4762C12.7305 35.9207 12.0406 35.282 11.4282 34.5721C9.33842 33.9727 7.34397 33.0789 5.50439 31.9176C-2.84566 26.7219 0.543466 20.5923 1.43991 19.2799C2.33635 17.9675 3.26913 15.7639 2.05318 12.5222C0.83723 9.28056 4.25664 -0.124325 12.8769 0.00155671C15.8405 0.159994 18.7609 0.671551 22.0308 2.983C24.8514 1.36846 28.0331 0.507687 30.7908 0.560427C36.5529 0.463412 42.4451 3.02446 43.7052 7.88848C44.9653 12.7525 46.4979 15.4249 47.4043 17.6445C48.3107 19.8642 49.3 26.3104 43.3684 29.7561C41.7046 30.7307 39.9338 31.5086 38.0914 32.0743C34.4936 39.0533 28.2401 40.0052 25.1833 39.999H25.0736C19.8907 40.0003 15.7198 38.1214 13.485 36.4762Z" fill="white"/>
<path style="mix-blend-mode:multiply" d="M30.7905 0.560104C36.5527 0.462871 42.4449 3.02392 43.705 7.88837C44.9651 12.7528 46.4977 15.4248 47.4041 17.6446C48.3105 19.8645 49.2997 26.3103 43.3682 29.7568C37.4366 33.2034 26.2305 36.6975 17.414 23.3927C8.4295 9.83368 21.8471 0.389078 30.7905 0.560104Z" fill="url(#paint0_linear_1_3)"/>
<path style="mix-blend-mode:multiply" d="M12.8767 0.00124727C17.924 0.271025 22.8505 1.5663 29.5807 11.0333C36.311 20.5002 29.6361 31.2803 25.4691 33.2974C21.3021 35.3145 13.8526 37.1129 5.50403 31.9173C-2.84451 26.7216 0.543103 20.592 1.43954 19.2796C2.33598 17.9672 3.26855 15.7636 2.0526 12.5219C0.836653 9.28025 4.25649 -0.124417 12.8767 0.00124727Z" fill="url(#paint1_linear_1_3)"/>
<path style="mix-blend-mode:multiply" d="M25.183 39.9997C29.0375 40.0077 37.9742 38.4913 40.2607 25.2917C41.7938 11.6327 36.1132 9.36315 31.1103 9.91551C23.788 10.8355 25.1374 7.02891 17.9479 6.96835C11.6116 6.99223 7.59775 15.0044 7.68991 23.0632C7.78206 31.122 11.2335 34.819 13.4841 36.4761C15.7347 38.1332 19.9493 40.0264 25.183 39.9997Z" fill="url(#paint2_linear_1_3)"/>
<path d="M31.7884 32.0887H13.4009V21.4539H16.8621V28.6161H30.9231V21.4539H34.3842V32.0887H31.7884Z" fill="white"/>
<path d="M30.4904 19.0664L24.0008 12.1213L17.5111 19.0664H12.3193L15.5642 15.6902V12.3383H18.7856L24.0008 6.91235L35.6822 19.0664H30.4904Z" fill="white"/>
<path d="M23.689 27.3961C25.6556 27.6305 29.1857 24.1169 29.1007 22.2413C29.0157 20.3656 27.7357 20.4646 26.5103 21.1127C25.2848 21.7608 24.8781 22.5799 23.689 22.442C22.4998 22.3042 21.2662 19.7881 20.1054 19.7868C18.9446 19.7855 18.7384 21.2672 19.0008 22.6202C19.2632 23.9732 21.7226 27.1617 23.689 27.3961Z" fill="white"/>
<path d="M22.3066 20.0446C22.8443 20.0446 23.2801 19.6074 23.2801 19.068C23.2801 18.5286 22.8443 18.0913 22.3066 18.0913C21.769 18.0913 21.3332 18.5286 21.3332 19.068C21.3332 19.6074 21.769 20.0446 22.3066 20.0446Z" fill="white"/>
<path d="M26.4167 20.6958C26.9543 20.6958 27.3901 20.2585 27.3901 19.7191C27.3901 19.1797 26.9543 18.7424 26.4167 18.7424C25.8791 18.7424 25.4432 19.1797 25.4432 19.7191C25.4432 20.2585 25.8791 20.6958 26.4167 20.6958Z" fill="white"/>
<path d="M24.2536 21.7809C24.6717 21.7809 25.0107 21.4408 25.0107 21.0213C25.0107 20.6018 24.6717 20.2617 24.2536 20.2617C23.8354 20.2617 23.4965 20.6018 23.4965 21.0213C23.4965 21.4408 23.8354 21.7809 24.2536 21.7809Z" fill="white"/>
<path d="M23.6889 27.3959C23.165 27.3091 22.6682 27.1021 22.2371 26.791C22.373 25.7232 22.4385 24.0935 21.79 23.1311C20.7648 21.6097 20.6251 20.6098 20.9578 20.5204C21.0856 20.4861 21.3437 20.6111 21.6392 20.8008C22.3223 21.517 23.0126 22.3635 23.6886 22.4425C24.486 22.5349 24.9316 22.1972 25.5083 21.7697C26.0334 21.463 26.596 21.1741 26.9095 21.4778C27.4057 21.9578 25.7829 22.7318 25.5501 23.738C25.3686 24.5226 25.472 25.7998 25.7508 26.7348C25.0941 27.1483 24.4373 27.4076 23.882 27.4076C23.8175 27.4076 23.753 27.4036 23.6889 27.3959Z" fill="url(#paint3_linear_1_3)"/>
<path d="M54.7904 23.1608V17.0403C54.7904 14.7961 54.6989 12.4806 54.5159 10.0936C55.3084 9.92837 56.1158 9.84632 56.9251 9.84877C57.603 9.82862 58.2764 9.96472 58.8936 10.2466C59.1393 10.3489 59.3481 10.5236 59.4924 10.7477C59.6368 10.9718 59.7098 11.2346 59.7018 11.5013C59.7018 11.6033 59.6663 12.4296 59.5952 13.9801C59.5241 15.5306 59.4885 16.8261 59.4885 17.8666C61.2162 16.6366 62.8477 15.2759 64.3688 13.7965C65.9746 12.2459 67.0215 10.8586 67.5096 9.63456C68.4653 9.94058 69.1058 10.2619 69.4312 10.5984C69.5889 10.7569 69.7134 10.9456 69.7972 11.1533C69.8811 11.3609 69.9225 11.5833 69.9192 11.8073C69.9192 13.1538 67.8146 15.3676 63.6054 18.4487C65.9444 22.1212 67.734 24.7018 68.9743 26.1904C69.625 26.9452 70.2451 27.3227 70.8347 27.3227C70.8957 27.3227 71.1702 27.2921 71.6582 27.2309C71.8205 27.6728 71.9131 28.1374 71.9327 28.608C71.9421 28.9123 71.8618 29.2127 71.7017 29.4714C71.5416 29.7301 71.3089 29.9356 71.0328 30.0621C70.355 30.3958 69.6063 30.5584 68.8516 30.5359C67.7332 30.5359 66.625 30.0157 65.527 28.9752C64.0832 27.6083 62.243 24.9255 60.0062 20.9268C59.9655 20.9472 59.7925 21.0594 59.487 21.2634V24.0176C59.487 26.3026 59.731 28.2611 60.2191 29.8933C59.3271 30.2014 58.3873 30.3465 57.4443 30.3217C57.1071 30.3274 56.7701 30.3018 56.4375 30.2453C56.1448 30.1841 55.8624 30.081 55.5988 29.9393C55.2876 29.767 55.0531 29.4825 54.943 29.1434C54.7864 28.6752 54.7141 28.1828 54.7294 27.6892C54.7294 27.3016 54.7396 26.5723 54.7599 25.5013C54.7803 24.4303 54.7904 23.6501 54.7904 23.1608ZM73.1218 15.9998C73.8899 15.7454 74.6925 15.6112 75.5014 15.602C76.9858 15.602 77.8294 16.2038 78.0324 17.4075C79.3541 16.0814 80.8588 15.4184 82.5466 15.4184C83.9293 15.4184 85.068 15.8163 85.9627 16.6121C86.8574 17.4079 87.3045 18.5402 87.3039 20.0089C87.3039 20.0497 87.2886 20.7842 87.2581 22.2123C87.2275 23.6404 87.2126 24.7213 87.2135 25.4551C87.1835 26.9611 87.3582 28.4643 87.7327 29.923C86.8724 30.1864 85.9779 30.3208 85.0784 30.3217C83.4517 30.3217 82.6383 29.6995 82.6383 28.4552C82.6383 27.7207 82.6688 26.3691 82.7298 24.4003C82.7908 22.4314 82.8213 21.243 82.8213 20.835C82.8213 19.9985 82.6536 19.3712 82.3181 18.9531C82.1665 18.7535 81.97 18.5927 81.7448 18.4837C81.5195 18.3747 81.2718 18.3206 81.0217 18.3258C80.1677 18.3258 79.2221 18.8257 78.1851 19.8253C78.2257 22.4367 78.2461 24.3239 78.2461 25.4868C78.2461 27.2821 78.2966 28.853 78.3975 30.1995C77.7265 30.2607 77.1266 30.2913 76.5979 30.2913C74.5645 30.2913 73.5478 29.8017 73.5478 28.8224C73.5478 28.7408 73.5732 28.0267 73.6241 26.6802C73.675 25.3337 73.7005 23.9362 73.7005 22.4877C73.7011 19.1621 73.5082 16.9995 73.1218 15.9998ZM104.599 29.9239C103.766 30.1648 102.905 30.2985 102.037 30.3217C101.452 30.3395 100.874 30.1852 100.375 29.8779C100.153 29.7392 99.9695 29.5481 99.8391 29.3213C99.7087 29.0945 99.6359 28.839 99.6272 28.5774C98.1431 29.8831 96.5368 30.5359 94.8084 30.5359C91.9412 30.5359 90.5077 29.0976 90.5077 26.221C90.5077 26.1598 90.523 25.4151 90.5535 23.987C90.5841 22.5589 90.5994 21.4882 90.5994 20.7749C90.5994 18.6531 90.4367 17.0615 90.1114 16C90.9079 15.734 91.7422 15.5995 92.5818 15.6016C94.3305 15.6016 95.2049 16.2237 95.2049 17.4681C95.2049 18.1413 95.1744 19.396 95.1134 21.2322C95.0524 23.0683 95.0219 24.17 95.0219 24.5372C95.0219 25.5165 95.1795 26.2713 95.4948 26.8018C95.81 27.3322 96.2014 27.5974 96.669 27.5974C97.706 27.5974 98.6723 27.118 99.5677 26.1591C99.5474 25.3633 99.5372 24.129 99.5372 22.4563C99.5372 20.0897 99.466 17.9373 99.3237 15.9992C100.08 15.7435 100.873 15.6093 101.671 15.6016C102.485 15.6016 103.115 15.724 103.562 15.9688C104.01 16.2136 104.233 16.7236 104.233 17.4989C104.233 17.7029 104.208 18.3251 104.157 19.3654C104.106 20.4058 104.07 21.2218 104.05 21.8136V24.017C104.05 26.6084 104.233 28.5774 104.599 29.9239ZM115.183 20.3148C115.059 19.7474 114.76 19.2336 114.329 18.8458C113.961 18.5135 113.484 18.3282 112.988 18.325C112.562 18.3118 112.143 18.441 111.798 18.6922C111.636 18.8171 111.507 18.98 111.421 19.1668C111.336 19.3535 111.298 19.5583 111.31 19.7633C111.311 20.0046 111.378 20.2411 111.505 20.4464C111.631 20.6517 111.812 20.8178 112.027 20.9261C112.571 21.2381 113.156 21.47 113.766 21.6146C114.458 21.7915 115.14 22.006 115.809 22.2572C116.493 22.5142 117.094 22.9533 117.548 23.5273C118.044 24.1745 118.298 24.9761 118.264 25.7919C118.264 27.3424 117.649 28.5206 116.419 29.3264C115.121 30.1519 113.609 30.5729 112.072 30.5359C111.544 30.5359 111.025 30.5104 110.517 30.4595C109.926 30.3944 109.341 30.2922 108.763 30.1535C108.172 30.0364 107.624 29.7615 107.177 29.3578C106.985 29.1812 106.833 28.9657 106.73 28.7256C106.628 28.4856 106.577 28.2264 106.582 27.9653C106.582 26.8636 107.406 26.0068 109.053 25.3947C109.216 26.073 109.631 26.6637 110.212 27.0473C110.745 27.4035 111.371 27.595 112.011 27.5981C113.374 27.5981 114.055 27.1085 114.055 26.1292C114.055 25.6599 113.694 25.2775 112.972 24.9817C112.206 24.672 111.415 24.4263 110.609 24.2473C109.716 24.0323 108.899 23.5774 108.245 22.9314C107.523 22.2478 107.162 21.3348 107.162 20.1923C107.162 18.7438 107.777 17.5809 109.007 16.7037C110.22 15.8319 111.679 15.3709 113.171 15.3878C113.893 15.389 114.614 15.466 115.321 15.6174C116.033 15.7661 116.705 16.069 117.288 16.5049C117.878 16.9436 118.173 17.4789 118.173 18.111C118.169 18.3904 118.099 18.665 117.969 18.9123C117.84 19.1596 117.653 19.3726 117.426 19.5338C116.927 19.932 116.18 20.1923 115.183 20.3148ZM144.617 9.81817C145.078 9.70939 145.548 9.64787 146.02 9.63456C146.814 9.63456 147.21 10.0732 147.21 10.9505C147.21 13.317 146.544 16.3721 145.212 20.1157C143.88 23.8593 142.492 26.7003 141.049 28.6386C140.7 29.1417 140.284 29.5944 139.813 29.9842C139.527 30.1993 139.18 30.3175 138.822 30.3217C138.476 30.3217 138.1 30.3013 137.693 30.2605C136.812 25.6603 135.536 21.1451 133.881 16.7649C133.221 19.0551 132.411 21.299 131.456 23.482C130.49 25.6958 129.651 27.2769 128.939 28.2253C128.228 29.1738 127.714 29.7603 127.399 29.9849C127.117 30.1979 126.776 30.3159 126.423 30.3217C126.088 30.3217 125.717 30.3013 125.31 30.2605C124.72 26.9962 123.688 23.2372 122.214 18.9834C120.74 14.7297 119.494 12.0622 118.478 10.9811C119.311 10.2262 120.038 9.84877 120.658 9.84877C121.279 9.84877 121.772 10.2874 122.138 11.1647C122.89 12.9396 123.744 15.4796 124.7 18.7846C125.656 22.0897 126.428 25.0377 127.018 27.6287C128.116 26.3026 129.275 23.8493 130.495 20.2687C131.715 16.6882 132.325 13.7248 132.325 11.3787C132.344 10.8555 132.303 10.3318 132.203 9.81795C132.663 9.70918 133.134 9.64765 133.606 9.63434C134.399 9.63434 134.796 10.073 134.796 10.9502C134.797 11.535 134.746 12.1187 134.645 12.6946C135.987 14.8163 137.573 19.7943 139.404 27.6285C140.502 26.282 141.666 23.8236 142.896 20.2533C144.127 16.6831 144.742 13.7248 144.741 11.3787C144.76 10.8554 144.718 10.3319 144.617 9.81817ZM162.461 23.1302C162.461 25.3743 161.851 27.1697 160.631 28.5162C159.41 29.8627 157.809 30.5359 155.826 30.5359C153.844 30.5359 152.243 29.8627 151.023 28.5162C149.803 27.1697 149.193 25.3743 149.193 23.1302C149.193 20.886 149.803 19.0855 151.023 17.7287C152.243 16.372 153.844 15.6937 155.826 15.6938C157.809 15.6938 159.41 16.3721 160.631 17.7287C161.851 19.0854 162.461 20.8858 162.461 23.1302ZM155.811 28.8222C157.235 28.8222 158.343 28.3427 159.136 27.3839C159.929 26.425 160.326 25.1091 160.326 23.4362C160.326 21.7633 159.919 20.3402 159.106 19.1671C158.748 18.6126 158.255 18.1597 157.672 17.8516C157.09 17.5435 156.439 17.3906 155.781 17.4075C154.378 17.4075 153.285 17.8923 152.502 18.8617C151.719 19.8311 151.328 21.1519 151.328 22.8241C151.328 24.4971 151.725 25.915 152.518 27.0781C152.87 27.6295 153.358 28.08 153.936 28.3857C154.513 28.6914 155.159 28.8418 155.811 28.8222ZM175.149 28.761L175.332 20.835C175.332 19.6919 175.053 18.8351 174.493 18.2644C174.213 17.9804 173.878 17.7576 173.508 17.6101C173.138 17.4627 172.741 17.3937 172.343 17.4075C170.96 17.4075 169.598 17.9686 168.256 19.0907C168.297 21.8653 168.317 24.0635 168.317 25.6853C168.317 27.3072 168.378 28.812 168.5 30.1997C168.158 30.2624 167.811 30.2932 167.463 30.2915C166.548 30.2915 166.09 29.9039 166.09 29.1286C166.09 29.047 166.116 28.2972 166.167 26.8793C166.218 25.4613 166.243 24.0485 166.243 22.641C166.243 19.2951 166.05 17.1325 165.663 16.1533C166.011 16.0029 166.383 15.9198 166.761 15.9085C167.697 15.9085 168.164 16.4185 168.164 17.4386C168.881 16.9132 169.673 16.5004 170.513 16.2145C171.482 15.8652 172.504 15.6889 173.533 15.6936C174.54 15.6745 175.516 16.041 176.263 16.7187C177.025 17.4022 177.407 18.4988 177.407 20.0085L177.315 25.4551C177.315 27.332 177.488 28.8723 177.834 30.076C177.421 30.2407 176.981 30.3241 176.537 30.3217C176.35 30.3355 176.161 30.3115 175.983 30.251C175.805 30.1905 175.641 30.0948 175.5 29.9694C175.266 29.735 175.149 29.3322 175.149 28.761ZM187.838 15.6938C189.261 15.6938 190.415 16.0967 191.299 16.9025C192.183 17.7083 192.625 18.5805 192.626 19.5191C192.626 20.4576 192.483 21.192 192.199 21.7225C191.937 22.2269 191.555 22.6581 191.086 22.9771C190.481 23.3375 189.813 23.5766 189.118 23.681C187.817 23.9258 185.865 24.0482 183.262 24.0482C183.425 25.5171 183.867 26.68 184.589 27.5369C185.311 28.3938 186.383 28.8222 187.807 28.8222C189.23 28.8222 190.236 28.2917 190.826 27.2309C191.64 27.5573 192.046 28.0058 192.046 28.5765C192.046 29.1472 191.584 29.6164 190.659 29.9842C189.671 30.3632 188.62 30.5504 187.562 30.5359C185.651 30.5359 184.085 29.929 182.865 28.7152C181.645 27.5014 181.035 25.6754 181.035 23.2374C181.035 20.7993 181.711 18.9328 183.063 17.6378C183.692 17.013 184.437 16.5195 185.256 16.1858C186.076 15.8521 186.953 15.6849 187.838 15.6938ZM187.716 17.3769C187.138 17.3666 186.563 17.4722 186.026 17.6877C185.489 17.9031 185.001 18.2241 184.589 18.6316C183.725 19.4681 183.273 20.7636 183.232 22.5181C186.14 22.5181 188.072 22.3039 189.027 21.8755C189.433 21.6926 189.793 21.4207 190.08 21.0798C190.391 20.6849 190.548 20.1899 190.522 19.6873C190.522 19.1059 190.253 18.5755 189.714 18.096C189.162 17.6118 188.448 17.355 187.716 17.3769ZM205.315 28.761L205.498 20.835C205.498 19.6919 205.219 18.8351 204.659 18.2644C204.379 17.9804 204.044 17.7576 203.674 17.6101C203.304 17.4627 202.907 17.3937 202.509 17.4075C201.126 17.4075 199.764 17.9686 198.422 19.0907C198.463 21.8653 198.483 24.0635 198.483 25.6853C198.483 27.3072 198.544 28.812 198.666 30.1997C198.324 30.2624 197.977 30.2932 197.629 30.2915C196.714 30.2915 196.256 29.9039 196.256 29.1286C196.256 29.047 196.282 28.2972 196.332 26.8793C196.383 25.4613 196.409 24.0485 196.409 22.641C196.409 19.2951 196.215 17.1325 195.829 16.1533C196.176 16.0029 196.549 15.9198 196.927 15.9085C197.862 15.9085 198.33 16.4185 198.33 17.4386C199.046 16.9132 199.838 16.5004 200.679 16.2145C201.647 15.8652 202.669 15.6889 203.698 15.6936C204.705 15.6745 205.681 16.041 206.428 16.7187C207.191 17.4022 207.572 18.4988 207.572 20.0085L207.481 25.4551C207.481 27.332 207.654 28.8723 208 30.076C207.587 30.2407 207.147 30.3241 206.703 30.3217C206.516 30.3355 206.327 30.3115 206.149 30.251C205.971 30.1905 205.807 30.0948 205.666 29.9694C205.432 29.735 205.315 29.3322 205.315 28.761Z" fill="#39468C"/>
<defs>
<linearGradient id="paint0_linear_1_3" x1="46.4744" y1="15.5663" x2="14.4425" y2="15.7763" gradientUnits="userSpaceOnUse">
<stop stop-color="#35BCE7"/>
<stop offset="1" stop-color="#BFE27D"/>
</linearGradient>
<linearGradient id="paint1_linear_1_3" x1="16.2248" y1="0" x2="16.2248" y2="35.3144" gradientUnits="userSpaceOnUse">
<stop stop-color="#FFD201"/>
<stop offset="1" stop-color="#FF6B38"/>
</linearGradient>
<linearGradient id="paint2_linear_1_3" x1="36.5106" y1="10.5358" x2="18.8251" y2="38.2821" gradientUnits="userSpaceOnUse">
<stop stop-color="#8F58B7"/>
<stop offset="1" stop-color="#FB81B6"/>
</linearGradient>
<linearGradient id="paint3_linear_1_3" x1="21.9016" y1="24.7608" x2="25.8117" y2="24.7831" gradientUnits="userSpaceOnUse">
<stop stop-color="#FFD201"/>
<stop offset="1" stop-color="#FF6B38"/>
</linearGradient>
</defs>
</svg>
